<?xml version="1.0" encoding="utf-8"?>
<!-- Generator: Adobe Illustrator 24.0.0, SVG Export Plug-In . SVG Version: 6.00 Build 0)  -->
<svg version="1.1" id="Capa_1" xmlns="http://www.w3.org/2000/svg" xmlns:xlink="http://www.w3.org/1999/xlink" x="0px" y="0px"
	 viewBox="0 0 792 612" style="enable-background:new 0 0 792 612;" xml:space="preserve">
<style type="text/css">
	.st0{fill:#1D1D1C;}
	.st1{fill:#2E33E4;}
	.st2{fill:#F3F3F3;}
	.st3{fill:#FFFFFF;}
</style>
<g>
	<g>
		<g>
			<path class="st3" d="M93.36,268.87c-0.27-7.36-2.49-14.08-7.09-19.84c-8.1-10.16-18.72-14.72-31.51-13.18
				c1.04,4.06,1.87,8.16,2.78,12.25c0.64-0.05,1.29-0.08,1.95-0.07c11.85,0.16,21.58,10.25,21.4,22.2
				c-0.18,11.98-10.16,21.77-22.01,21.6c-9.05-0.13-16.73-5.59-20.04-13.31H26.25c0.07,0.21,0.14,0.41,0.22,0.62
				c1.58,4.22,3.37,8.39,5.39,12.42c4.55,9.1,10.05,17.65,15.83,26.01c3.62,5.24,7.37,10.38,11.19,15.75c0.4-0.48,0.62-0.73,0.82-1
				c6.78-8.96,13.2-18.18,19.09-27.75c4.51-7.34,8.76-14.82,11.86-22.89C92.23,277.55,93.52,273.36,93.36,268.87z"/>
			<g>
				
					<ellipse transform="matrix(0.459 -0.8884 0.8884 0.459 -209.8494 202.0277)" class="st3" cx="60.96" cy="273.32" rx="7.05" ry="7.05"/>
			</g>
			<circle class="st3" cx="73.4" cy="275.81" r="4.57"/>
			<circle class="st3" cx="66.67" cy="283.71" r="2.78"/>
			<path class="st3" d="M54.65,249.12c-0.62-2.3-1.32-4.64-1.77-6.97c-14.51,3.49-24.71,17.6-23.79,33.35
				c2.3-0.12,4.6-0.19,6.9-0.24C35.17,262.88,43.22,251.76,54.65,249.12z"/>
			<path class="st3" d="M56.5,255.68c-9.14,1.59-15.27,10.34-13.66,19.48l6.52-1.15c-0.99-5.54,2.73-10.86,8.28-11.83L56.5,255.68z"
				/>
			<path class="st3" d="M50.8,231.23c-21.78,3.4-36.74,23.88-33.36,45.67l6.19-0.96c-2.87-18.38,9.76-35.66,28.15-38.53L50.8,231.23
				z"/>
		</g>
	</g>
	<g>
		<g>
			<path class="st3" d="M251.77,287.98v-32.59h11.94v73.28h-11.94v-12.68l1.92-8.41h-3.39c-2.95,13.27-12.24,22.56-28.16,22.56
				c-16.66,0-27.42-9.58-27.42-29.93v-44.82h12.09v43.2c0,15.33,5.9,21.23,18.58,21.23C240.86,319.82,251.77,307.59,251.77,287.98z"
				/>
			<path class="st3" d="M332.12,318.35v10.32l-27.72,1.47c-6.93,0.44-10.03-3.24-10.03-10.03v-54.41h-16.22v-10.32h16.22v-18.87
				l11.94-3.69v22.56h22.85v10.32h-22.85v54.26L332.12,318.35z"/>
			<path class="st3" d="M382.4,253.92c23.3,0,38.48,16.81,38.48,38.04c0,21.38-15.19,38.19-38.48,38.19
				c-23.44,0-38.78-16.81-38.78-38.19C343.62,270.72,358.96,253.92,382.4,253.92z M382.4,319.82c17.25,0,26.54-12.53,26.54-27.87
				c0-15.19-9.29-27.72-26.54-27.72c-17.4,0-26.69,12.53-26.69,27.72C355.71,307.29,365,319.82,382.4,319.82z"/>
			<path class="st3" d="M483.4,318.35v10.32l-27.72,1.47c-6.93,0.44-10.03-3.24-10.03-10.03v-54.41h-16.22v-10.32h16.22v-18.87
				l11.94-3.69v22.56h22.85v10.32h-22.85v54.26L483.4,318.35z"/>
			<path class="st3" d="M501.83,264.09c0-6.93,3.24-10.32,10.17-10.03l40.69,1.33v10.32l-38.78-1.33v64.29h-12.09V264.09z"/>
			<path class="st3" d="M653.54,253.92c14.15,0,32.29,7.96,34.21,29.19h-12.24c-2.06-14.01-11.35-18.87-21.97-18.87
				c-17.4,0-25.36,12.68-25.36,27.72c0,15.19,7.96,27.87,25.36,27.87c10.62,0,19.91-4.87,21.97-18.87h12.24
				c-1.92,21.23-20.05,29.19-34.21,29.19c-23.74,0-37.45-16.96-37.45-38.19C616.09,270.87,629.8,253.92,653.54,253.92z"/>
			<path class="st3" d="M734.34,294.61l-15.33,8.4v25.66h-12.09V220.3H719v70.04l37.3-20.35l-1.47-14.6h12.09l1.18,13.42
				c0.44,4.87-1.77,8.4-5.9,10.62l-17.99,9.88l28.31,39.37h-13.71L734.34,294.61z"/>
		</g>
	</g>
	<path class="st3" d="M574.57,325.74c-4.47,0-8.47-0.86-11.97-2.57c-3.51-1.71-6.28-4.06-8.29-7.04c-2.02-2.98-3.03-6.4-3.03-10.26
		c0-3.68,0.79-7.04,2.37-10.07c1.58-3.03,4.03-5.59,7.37-7.7c3.33-2.11,7.59-3.6,12.77-4.48l27.64-4.61v8.95l-25.27,4.21
		c-5.09,0.88-8.75,2.5-10.99,4.87c-2.24,2.37-3.36,5.18-3.36,8.42c0,3.16,1.25,5.84,3.75,8.03c2.5,2.19,5.73,3.29,9.67,3.29
		c4.82,0,9.03-1.03,12.63-3.09c3.59-2.06,6.4-4.85,8.42-8.36c2.02-3.51,3.03-7.41,3.03-11.71v-30.14h-41.45v-9.87h51.32v70.54h-9.87
		v-14.08l1.45,1.45c-1.23,2.63-3.14,5.02-5.73,7.17c-2.59,2.15-5.62,3.86-9.08,5.13C582.48,325.1,578.69,325.74,574.57,325.74z"/>
	<path class="st3" d="M149.82,328.67c-4.47,0-8.47-0.86-11.97-2.57c-3.51-1.71-6.28-4.06-8.29-7.04c-2.02-2.98-3.03-6.4-3.03-10.26
		c0-3.68,0.79-7.04,2.37-10.07c1.58-3.03,4.03-5.59,7.37-7.7c3.33-2.11,7.59-3.6,12.77-4.48l27.64-4.61v8.95l-25.27,4.21
		c-5.09,0.88-8.75,2.5-10.99,4.87c-2.24,2.37-3.36,5.18-3.36,8.42c0,3.16,1.25,5.84,3.75,8.03c2.5,2.19,5.73,3.29,9.67,3.29
		c4.82,0,9.03-1.03,12.63-3.09c3.59-2.06,6.4-4.85,8.42-8.36c2.02-3.51,3.03-7.41,3.03-11.71v-30.14h-41.45v-9.87h51.32v70.54h-9.87
		v-14.08l1.45,1.45c-1.23,2.63-3.14,5.02-5.73,7.17c-2.59,2.15-5.62,3.86-9.08,5.13C157.73,328.03,153.94,328.67,149.82,328.67z"/>
</g>
</svg>
